<?xml version="1.0" encoding="UTF-8" standalone="no"?>
<!-- Created with Inkscape (http://www.inkscape.org/) -->

<svg
   width="100.24027mm"
   height="95.779137mm"
   viewBox="0 0 100.24027 95.779137"
   version="1.1"
   id="svg1"
   xml:space="preserve"
   xmlns="http://www.w3.org/2000/svg"
   xmlns:svg="http://www.w3.org/2000/svg"><defs
     id="defs1" /><g
     id="layer1"
     transform="translate(-61.583086,-161.4564)"><path
       style="fill:#00bebe;fill-opacity:1"
       d="m 61.804746,248.70274 c -0.0034,-4.69305 -0.03313,-15.46818 -0.06615,-23.94474 -0.03302,-8.47657 -0.0477,-15.41195 -0.03263,-15.41197 0.01507,-3e-5 0.997337,1.1251 2.182812,2.50029 l 2.155409,2.50035 v 19.32777 19.32778 h 20.044224 20.044219 l 1.32088,1.38931 c 0.72648,0.76413 1.60952,1.71663 1.96231,2.11667 l 0.64143,0.72735 H 85.934063 61.810859 Z m 53.584234,6.41614 2.10425,-2.11666 h 19.91611 19.9161 v -19.3458 -19.3458 l 0.83766,-0.96097 c 0.46071,-0.52854 1.47274,-1.66587 2.24896,-2.52742 l 1.4113,-1.56643 v 23.98987 23.98988 h -24.26932 -24.26931 z m -12.03854,-11.9865 c -1.96453,-2.07347 -6.892584,-7.31962 -10.951232,-11.6581 -4.058648,-4.33849 -10.764495,-11.38985 -14.901884,-15.6697 -4.137389,-4.27984 -7.424646,-7.78497 -7.305016,-7.78918 0.11963,-0.004 4.112753,0.96905 8.873607,2.16282 l 8.656096,2.17048 1.899071,3.45957 c 1.044488,1.90277 3.053792,5.54317 4.465118,8.08978 1.411326,2.54662 4.568546,8.26162 7.01603,12.7 2.44749,4.43839 4.79375,8.57581 5.21389,9.19427 0.42015,0.61846 0.72842,1.12122 0.68505,1.11725 -0.0434,-0.004 -1.6862,-1.70372 -3.65073,-3.77719 z m 13.96093,2.32921 c 0.56383,-0.87312 1.50644,-2.48047 2.09469,-3.57187 0.58825,-1.09141 2.05555,-3.77032 3.26065,-5.95313 2.32828,-4.21721 7.81546,-14.36382 10.54076,-19.49141 0.90247,-1.69798 1.84641,-3.32415 2.09764,-3.6137 0.34262,-0.39488 2.69136,-1.08802 9.39726,-2.77324 l 8.94048,-2.24679 -2.98735,3.09157 c -6.45781,6.6831 -14.98484,15.63418 -22.43423,23.54986 -4.29286,4.56159 -8.73442,9.26183 -9.87012,10.445 l -2.06492,2.15121 z m -9.17842,-3.90401 c -0.78937,-1.49081 -1.6915,-3.12729 -2.00475,-3.63661 -0.31324,-0.50933 -1.26157,-2.23573 -2.1074,-3.83646 -0.84582,-1.60073 -1.9784,-3.68432 -2.51684,-4.63021 -0.53844,-0.94588 -1.551384,-2.79135 -2.250994,-4.10104 -0.69961,-1.30969 -2.44079,-4.47358 -3.8693,-7.03086 -1.428512,-2.55729 -2.673895,-4.84924 -2.767523,-5.09323 -0.157145,-0.40951 0.493039,-0.44362 8.457027,-0.44362 h 8.62727 v 15.74271 c 0,8.65849 -0.0298,15.74207 -0.0661,15.7413 -0.0364,-7.7e-4 -0.71198,-1.22116 -1.50134,-2.71198 z m 5.53624,-12.98522 v -15.78681 h 8.46667 c 4.65666,0 8.46666,0.0726 8.46666,0.16133 0,0.16291 -5.66314,10.84641 -8.46981,15.97825 -0.83567,1.52797 -3.03857,5.5761 -4.89534,8.99584 -1.85678,3.41974 -3.41921,6.26731 -3.47207,6.32795 -0.0529,0.0606 -0.0961,-6.99382 -0.0961,-15.67656 z M 93.031692,208.57229 c 0,-0.13449 1.488284,-3.64408 3.307294,-7.7991 1.81901,-4.15501 3.30729,-7.67759 3.30729,-7.82796 0,-0.18512 3.863054,-0.25116 11.964304,-0.20455 l 11.9643,0.0688 3.11287,7.27604 c 1.71207,4.00183 3.22756,7.60347 3.36776,8.00365 l 0.2549,0.7276 h -18.63936 c -11.23046,0 -18.639358,-0.0972 -18.639358,-0.24452 z m -14.750154,-2.93013 c -4.983886,-1.28549 -9.168187,-2.377 -9.298445,-2.42557 -0.210504,-0.0785 5.343309,-7.59013 10.817017,-14.6302 1.771744,-2.27875 2.052218,-2.53148 2.64438,-2.38286 0.364331,0.0914 2.925262,1.18171 5.690957,2.42282 2.765695,1.24112 5.47381,2.45193 6.018029,2.6907 0.54423,0.23878 0.99071,0.54713 0.99219,0.68524 0.002,0.1381 -0.76733,1.98357 -1.708478,4.10104 -0.941144,2.11747 -2.467597,5.63588 -3.392117,7.81869 -1.298575,3.06596 -1.797069,3.97883 -2.191433,4.01308 -0.280768,0.0244 -4.588213,-1.00744 -9.5721,-2.29294 z m 56.076572,1.12413 c -0.31251,-0.69122 -1.27763,-2.98318 -2.14472,-5.09323 -0.86708,-2.11005 -2.17741,-5.18366 -2.91183,-6.83025 l -1.33532,-2.99379 2.04575,-0.94394 c 1.12516,-0.51916 4.16351,-1.86804 6.75189,-2.99751 l 4.70615,-2.05357 2.70218,3.47077 c 3.57089,4.58656 10.49481,13.77293 10.42793,13.83535 -0.0904,0.0844 -19.19355,4.86294 -19.44044,4.86294 -0.12837,0 -0.48908,-0.56554 -0.80159,-1.25677 z m -72.701142,-4.65185 c 0.08464,-0.26656 0.153891,-9.52367 0.153891,-20.57135 V 161.4564 h 50.006251 50.00625 v 20.5493 c 0,11.30212 -0.0446,20.4997 -0.0991,20.43906 -0.0545,-0.0606 -1.06653,-1.45352 -2.24895,-3.09531 l -2.14986,-2.98508 V 180.89476 165.42515 H 111.68481 66.044193 v 15.49494 15.49495 l -1.828779,2.56287 c -1.005829,1.40957 -2.02758,2.80099 -2.270558,3.09203 -0.393816,0.47171 -0.425071,0.47655 -0.287888,0.0445 z m 35.475768,-13.93587 c -0.72761,-0.279 -3.525575,-1.27851 -6.21771,-2.22113 l -4.894792,-1.71386 25.929166,-0.001 25.92916,-0.001 -2.77812,0.88055 c -1.52797,0.48431 -4.32594,1.45725 -6.21771,2.1621 l -3.43958,1.28155 -13.49375,0.0601 c -12.745054,0.0568 -13.567144,0.032 -14.816664,-0.44713 z"
       id="path1-6" /></g></svg>
